<?xml version="1.0" encoding="UTF-8" standalone="no"?>
<!-- Created with Inkscape (http://www.inkscape.org/) -->

<svg
   width="105mm"
   height="105mm"
   viewBox="0 0 105 105"
   version="1.1"
   id="svg5"
   inkscape:version="1.1 (c4e8f9e, 2021-05-24)"
   sodipodi:docname="Ricon.svg"
   xmlns:inkscape="http://www.inkscape.org/namespaces/inkscape"
   xmlns:sodipodi="http://sodipodi.sourceforge.net/DTD/sodipodi-0.dtd"
   xmlns="http://www.w3.org/2000/svg"
   xmlns:svg="http://www.w3.org/2000/svg">
  <sodipodi:namedview
     id="namedview7"
     pagecolor="#ffffff"
     bordercolor="#666666"
     borderopacity="1.0"
     inkscape:pageshadow="2"
     inkscape:pageopacity="0.0"
     inkscape:pagecheckerboard="0"
     inkscape:document-units="mm"
     showgrid="false"
     inkscape:snap-global="true"
     inkscape:object-paths="false"
     inkscape:zoom="1.6543901"
     inkscape:cx="323.59331"
     inkscape:cy="157.09029"
     inkscape:window-width="1366"
     inkscape:window-height="716"
     inkscape:window-x="0"
     inkscape:window-y="24"
     inkscape:window-maximized="1"
     inkscape:current-layer="layer1"
     inkscape:rotation="-2"
     width="105mm" />
  <defs
     id="defs2" />
  <g
     inkscape:label="Layer 1"
     inkscape:groupmode="layer"
     id="layer1">
    <path
       style="fill:none;stroke:#000000;stroke-width:0.264583px;stroke-linecap:butt;stroke-linejoin:miter;stroke-opacity:1"
       d="M 11.68086,23.418254 C 23.543447,8.338705 38.038817,2.975287 51.446084,2.022142 c 19.01091,0.715097 32.25233,8.499657 42.56595,21.271442 l -41.14763,0.33604 -0.10344,-12.097478 h -2.09201 l 0.0334,12.129488 z"
       id="path1546"
       sodipodi:nodetypes="cccccccc" />
    <path
       style="fill:none;stroke:#000000;stroke-width:0.264583px;stroke-linecap:butt;stroke-linejoin:miter;stroke-opacity:1"
       d="m 8.6612024,29.215754 42.0309316,-0.19652 0.0874,26.53059 -8.867426,-5.03929 -2.811151,4.79487 7.184157,4.42371 -34.30277,21.37159 c -3.7472076,-6.30421 -7.7664657,-10.35762 -9.0783907,-26.35869 -0.02546,-12.3299 1.449676,-18.25707 5.7572491,-25.52626 z"
       id="path2712"
       sodipodi:nodetypes="ccccccccc" />
    <path
       style="fill:none;stroke:#000000;stroke-width:0.264583px;stroke-linecap:butt;stroke-linejoin:miter;stroke-opacity:1"
       d="m 15.967173,85.496964 34.700341,-21.67695 0.0454,38.400976 C 42.71998,101.8846 37.188225,99.201004 31.317982,97.078264 25.006557,94.498914 20.256286,90.377184 15.967223,85.496964 Z"
       id="path3282"
       sodipodi:nodetypes="ccccc" />
    <path
       style="fill:none;stroke:#000000;stroke-width:0.264583px;stroke-linecap:butt;stroke-linejoin:miter;stroke-opacity:1"
       d="m 52.859994,63.757064 37.09766,21.56757 c -5.2807,5.54173 -8.43929,8.04128 -15.87613,12.02251 -5.63467,2.53774 -11.90408,5.092016 -21.34824,4.869476 z"
       id="path4104"
       sodipodi:nodetypes="ccccc" />
    <path
       style="fill:none;stroke:#000000;stroke-width:0.264583px;stroke-linecap:butt;stroke-linejoin:miter;stroke-opacity:1"
       d="m 99.261564,33.646014 -41.61118,25.75909 36.18236,21.5456 c 4.54058,-6.39493 6.658686,-11.26059 8.490146,-21.601 1.30553,-8.70372 0.23519,-17.2687 -3.061326,-25.70369"
       id="path4880"
       sodipodi:nodetypes="ccccc" />
    <path
       style="fill:none;stroke:#000000;stroke-width:0.264583px;stroke-linecap:butt;stroke-linejoin:miter;stroke-opacity:1"
       d="m 52.810374,29.152774 -0.0515,26.39868 42.35295,-26.52205 z"
       id="path5736" />
    <path
       style="fill:#f2f2f2;stroke-width:0.13674"
       d="m 11.926914,80.679617 c -0.0021,-0.06714 -0.59318,-1.056146 -1.313643,-2.197799 C 6.6552266,72.209873 5.0972171,68.273439 3.9743333,61.70801 3.3243711,57.907726 3.0721862,55.01012 3.1340749,52.053441 3.3325864,42.569552 4.6152547,36.969855 7.9895071,30.85626 l 0.7871248,-1.426138 0.5461026,-0.01659 c 0.4873837,-0.01479 14.6506935,-0.08203 34.1175945,-0.161941 3.782055,-0.01553 6.915968,0.0089 6.964251,0.05439 0.09647,0.09078 0.207198,25.645981 0.111567,25.747604 -0.03259,0.03463 -1.962282,-1.019196 -4.288213,-2.341832 -2.325928,-1.322636 -4.291729,-2.381919 -4.368443,-2.353963 -0.170913,0.06228 -2.919378,4.698148 -2.924074,4.932068 -0.0019,0.09209 1.537671,1.116513 3.421158,2.276491 2.765885,1.703422 3.390955,2.142535 3.250012,2.28314 -0.181796,0.181356 -33.153292,20.733194 -33.48627,20.872709 -0.104333,0.04371 -0.191365,0.02455 -0.193403,-0.04259 z"
       id="path6274" />
    <path
       style="fill:#ececec;stroke-width:0.13674"
       d="m 79.951799,23.22269 c -4.099837,0.02771 -11.821622,0.08376 -17.159517,0.124566 -5.337897,0.04081 -9.711817,0.06164 -9.719829,0.04631 -0.008,-0.01535 -0.03704,-2.656594 -0.06451,-5.869467 -0.02747,-3.212872 -0.08913,-5.935096 -0.137014,-6.049388 -0.06878,-0.164153 -0.327814,-0.200491 -1.233207,-0.172996 l -1.146144,0.03481 -0.0096,2.565356 c -0.0053,1.410946 -0.0019,4.142954 0.0075,6.071126 l 0.01714,3.505774 -1.109276,-0.02487 c -1.33792,-0.02998 -25.194899,-0.16696 -31.826413,-0.182729 -2.59603,-0.0062 -4.867216,-0.04933 -5.04708,-0.0959 -0.30919,-0.08006 -0.258876,-0.164789 0.922441,-1.553508 C 22.773088,10.657482 34.529342,4.2429183 48.473633,2.5098049 50.66547,2.2373873 52.28807,2.220827 54.833017,2.4449026 66.144738,3.4408737 75.583695,7.0350847 83.868371,13.501123 c 2.802408,2.187229 6.576891,5.856703 8.955384,8.706236 l 0.683768,0.819185 -3.050739,0.07288 c -1.677905,0.04008 -6.405152,0.09555 -10.504993,0.123253 z"
       id="path6424" />
    <path
       style="fill:#f2f2f2;stroke-width:0.13674"
       d="m 52.979455,53.841022 c -0.05081,-1.986783 0.02761,-24.38477 0.08558,-24.444899 0.02963,-0.03074 6.363448,-0.07175 14.07515,-0.09115 7.711699,-0.01939 16.960461,-0.0476 20.552801,-0.06266 3.592344,-0.01506 6.529774,0.0067 6.527626,0.04834 -0.0044,0.08515 -40.98368,25.739582 -41.12201,25.743784 -0.04871,0.0016 -0.102325,-0.535557 -0.119147,-1.193411 z"
       id="path6463" />
    <path
       style="fill:#f2f2f2;stroke-width:0.13674"
       d="M 88.091626,77.282398 C 85.026407,75.453355 77.048384,70.700867 70.36268,66.721317 63.67698,62.741764 58.205714,59.447963 58.204309,59.401756 c -0.0054,-0.178062 40.84089,-25.357182 40.953118,-25.244969 0.150117,0.150092 1.076413,2.76221 1.482423,4.180355 2.29741,8.024625 2.61276,15.412437 1.0011,23.452767 -1.23717,6.172034 -2.810111,10.66051 -5.112492,14.588757 -0.921057,1.571477 -2.669349,4.232659 -2.779429,4.230738 -0.04636,-7.94e-4 -2.592186,-1.497962 -5.657403,-3.327006 z"
       id="path6502" />
    <path
       style="fill:#f2f2f2;stroke-width:0.13674"
       d="m 53.10469,101.99504 c -0.135564,-0.0895 -0.159282,-4.094538 -0.112027,-18.91924 0.03297,-10.343161 0.0793,-18.829332 0.102965,-18.858159 0.04423,-0.05389 36.081086,20.847997 36.333647,21.074031 0.283686,0.253891 -4.45307,4.754668 -6.983119,6.635231 -6.708455,4.986327 -14.51829,8.386447 -22.073084,9.609827 -1.875501,0.30371 -7.011903,0.62759 -7.268382,0.45831 z"
       id="path6541" />
    <path
       style="fill:#f2f2f2;stroke-width:0.13674"
       d="m 48.660148,101.87441 c -2.985566,-0.29128 -6.435754,-1.07583 -9.746903,-2.216393 -3.163086,-1.089562 -8.220199,-3.049412 -9.55888,-3.704481 -2.880749,-1.40966 -5.972138,-3.537598 -8.659955,-5.961025 -1.84222,-1.661012 -4.502645,-4.45117 -4.312695,-4.523005 0.07437,-0.02812 7.747508,-4.808098 17.051419,-10.622163 l 16.916209,-10.57103 0.05973,0.446513 c 0.07236,0.540986 0.155501,35.24595 0.08734,36.459164 -0.03002,0.53426 -0.108477,0.85255 -0.208553,0.84602 -0.08824,-0.006 -0.820706,-0.0749 -1.627706,-0.1536 z"
       id="path6580" />
  </g>
</svg>
