<?xml version="1.0" encoding="UTF-8" standalone="no"?>
<!-- Created with Inkscape (http://www.inkscape.org/) -->

<svg
   width="105mm"
   height="105mm"
   viewBox="0 0 105 105"
   version="1.1"
   id="svg5"
   inkscape:version="1.1 (c4e8f9e, 2021-05-24)"
   sodipodi:docname="mask-icon.svg"
   xmlns:inkscape="http://www.inkscape.org/namespaces/inkscape"
   xmlns:sodipodi="http://sodipodi.sourceforge.net/DTD/sodipodi-0.dtd"
   xmlns="http://www.w3.org/2000/svg"
   xmlns:svg="http://www.w3.org/2000/svg">
  <sodipodi:namedview
     id="namedview7"
     pagecolor="#ffffff"
     bordercolor="#666666"
     borderopacity="1.0"
     inkscape:pageshadow="2"
     inkscape:pageopacity="0.0"
     inkscape:pagecheckerboard="0"
     inkscape:document-units="mm"
     showgrid="false"
     inkscape:snap-global="true"
     inkscape:object-paths="false"
     inkscape:zoom="0.82719505"
     inkscape:cx="149.1474"
     inkscape:cy="145.52677"
     inkscape:window-width="1366"
     inkscape:window-height="717"
     inkscape:window-x="0"
     inkscape:window-y="23"
     inkscape:window-maximized="1"
     inkscape:current-layer="layer1"
     inkscape:rotation="-2"
     width="105mm" />
  <defs
     id="defs2" />
  <g
     inkscape:label="Layer 1"
     inkscape:groupmode="layer"
     id="layer1">
    <path
       style="fill:#a4a4a4;stroke:#a4a4a4;stroke-width:0.264583px;stroke-linecap:butt;stroke-linejoin:miter;stroke-opacity:1;fill-opacity:1"
       d="M 11.68086,23.418254 C 23.543447,8.338705 38.038817,2.975287 51.446084,2.022142 c 19.01091,0.715097 32.25233,8.499657 42.56595,21.271442 l -41.14763,0.33604 -0.10344,-12.097478 h -2.09201 l 0.0334,12.129488 z"
       id="path1546"
       sodipodi:nodetypes="cccccccc" />
    <path
       style="fill:#a4a4a4;stroke:#a4a4a4;stroke-width:0.264583px;stroke-linecap:butt;stroke-linejoin:miter;stroke-opacity:1;fill-opacity:1"
       d="m 8.6612024,29.215754 37.1019956,-0.173474 4.928936,-0.02305 0.0874,26.53059 -8.867426,-5.03929 -2.811151,4.79487 7.184157,4.42371 -34.30277,21.37159 c -3.7472076,-6.30421 -7.7664657,-10.35762 -9.0783907,-26.35869 -0.02546,-12.3299 1.449676,-18.25707 5.7572491,-25.52626 z"
       id="path2712"
       sodipodi:nodetypes="cccccccccc" />
    <path
       style="fill:#a4a4a4;stroke:#a4a4a4;stroke-width:0.264583px;stroke-linecap:butt;stroke-linejoin:miter;stroke-opacity:1;fill-opacity:1"
       d="m 15.967173,85.496964 34.700341,-21.67695 0.0454,38.400976 C 42.71998,101.8846 37.188225,99.201004 31.317982,97.078264 25.006557,94.498914 20.256286,90.377184 15.967223,85.496964 Z"
       id="path3282"
       sodipodi:nodetypes="ccccc" />
    <path
       style="fill:#a4a4a4;stroke:#a4a4a4;stroke-width:0.264583px;stroke-linecap:butt;stroke-linejoin:miter;stroke-opacity:1;fill-opacity:1"
       d="m 52.859994,63.757064 37.09766,21.56757 c -5.2807,5.54173 -8.43929,8.04128 -15.87613,12.02251 -5.63467,2.53774 -11.90408,5.092016 -21.34824,4.869476 z"
       id="path4104"
       sodipodi:nodetypes="ccccc" />
    <path
       style="fill:#a4a4a4;stroke:#a4a4a4;stroke-width:0.264583px;stroke-linecap:butt;stroke-linejoin:miter;stroke-opacity:1;fill-opacity:1"
       d="m 99.261564,33.646014 -41.61118,25.75909 36.18236,21.5456 c 4.54058,-6.39493 6.658686,-11.26059 8.490146,-21.601 1.30553,-8.70372 0.23519,-17.2687 -3.061326,-25.70369"
       id="path4880"
       sodipodi:nodetypes="ccccc" />
    <path
       style="fill:#a4a4a4;stroke:#a4a4a4;stroke-width:0.265;stroke-linecap:butt;stroke-linejoin:miter;stroke-opacity:1;fill-opacity:1;stroke-miterlimit:4;stroke-dasharray:none"
       d="m 52.810374,29.152774 -0.0515,26.39868 42.35295,-26.52205 z"
       id="path5736" />
    <path
       id="path6274"
       style="fill:none;stroke-width:0.13674;stroke:none"
       d="m 36.238281,29.28125 c -9.15625,0.05139 -18.3125,0.102872 -27.4687498,0.154297 -3.7544379,6.133931 -5.3487966,13.417305 -5.5613482,20.492097 -0.2205217,6.962272 0.657315,14.022988 3.2087431,20.535789 1.1691428,3.044929 2.7426356,5.905119 4.5238369,8.596029 0.358287,0.588903 0.716575,1.177807 1.074862,1.76671 11.226892,-7.004732 22.45725,-14.002229 33.664063,-21.039063 -2.254273,-1.497173 -4.510887,-2.990828 -6.763672,-4.490234 0.978154,-1.649303 1.956866,-3.298275 2.935546,-4.947266 2.90235,1.571605 5.804687,3.143231 8.707032,4.714844 -0.04297,-8.599609 -0.08594,-17.199219 -0.128906,-25.798828 -4.730469,0.0052 -9.460938,0.01042 -14.191407,0.01563 z" />
    <path
       id="path6424"
       style="fill:none;stroke-width:0.1;stroke:none;stroke-opacity:0;stroke-miterlimit:4;stroke-dasharray:0, 1.1;fill-opacity:1;stroke-dashoffset:1"
       d="M 50.785156,2.3105469 C 44.037623,2.7837675 37.299656,4.6111522 31.210503,7.5790027 23.867442,11.201323 17.404742,16.564102 12.361328,22.998047 c 0.155773,0.402812 0.799288,0.08708 1.139945,0.204471 8.188918,0.147204 16.380213,0.09835 24.5701,0.169828 4.144976,0.01962 8.289896,0.05098 12.434486,0.112029 -0.02094,-4.073545 -0.02045,-8.14712 -0.01563,-12.220703 0.759795,0.264239 1.797152,-0.366309 2.332032,0.435547 0.204308,1.270786 0.09424,2.601497 0.158668,3.896818 0.03922,2.598739 0.06212,5.197679 0.09133,7.796541 13.245671,-0.07243 26.492522,-0.110348 39.736405,-0.348505 0.934158,0.167595 0.566402,-0.264725 0.108187,-0.718969 C 87.526966,15.971523 80.958874,10.483407 73.298032,7.0961445 67.469994,4.4727725 61.159972,2.9748313 54.868588,2.462605 53.51058,2.3649473 52.147455,2.2500417 50.785156,2.3105469 Z" />
    <path
       id="path6463"
       style="fill:none;stroke-width:0.13674"
       d="m 89.564453,29.251953 c -11.554816,0.01243 -23.110451,0.03425 -34.665088,0.121036 -0.609684,0.0091 -1.219368,0.01827 -1.829053,0.0274 -0.08985,8.347056 -0.14431,16.696576 -0.06568,25.043142 -0.10759,0.929642 0.596647,0.262766 1.037476,0.0019 13.424069,-8.316158 26.79659,-16.700148 40.147341,-25.134882 -1.538998,-0.111611 -3.083526,-0.07102 -4.625,-0.05859 z" />
    <path
       style="fill:none;stroke-width:0.13674;stroke:none"
       d="M 88.091626,77.282398 C 85.026407,75.453355 77.048384,70.700867 70.36268,66.721317 63.67698,62.741764 58.205714,59.447963 58.204309,59.401756 c -0.0054,-0.178062 40.84089,-25.357182 40.953118,-25.244969 0.150117,0.150092 1.076413,2.76221 1.482423,4.180355 2.29741,8.024625 2.61276,15.412437 1.0011,23.452767 -1.23717,6.172034 -2.810111,10.66051 -5.112492,14.588757 -0.921057,1.571477 -2.669349,4.232659 -2.779429,4.230738 -0.04636,-7.94e-4 -2.592186,-1.497962 -5.657403,-3.327006 z"
       id="path6502" />
    <path
       style="fill:none;stroke-width:0.13674;stroke:none"
       d="m 53.10469,101.99504 c -0.135564,-0.0895 -0.159282,-4.094538 -0.112027,-18.91924 0.03297,-10.343161 0.0793,-18.829332 0.102965,-18.858159 0.04423,-0.05389 36.081086,20.847997 36.333647,21.074031 0.283686,0.253891 -4.45307,4.754668 -6.983119,6.635231 -6.708455,4.986327 -14.51829,8.386447 -22.073084,9.609827 -1.875501,0.30371 -7.011903,0.62759 -7.268382,0.45831 z"
       id="path6541" />
    <path
       style="fill:none;stroke-width:0.13674;stroke:none"
       d="m 48.660148,101.87441 c -2.985566,-0.29128 -6.435754,-1.07583 -9.746903,-2.216393 -3.163086,-1.089562 -8.220199,-3.049412 -9.55888,-3.704481 -2.880749,-1.40966 -5.972138,-3.537598 -8.659955,-5.961025 -1.84222,-1.661012 -4.502645,-4.45117 -4.312695,-4.523005 0.07437,-0.02812 7.747508,-4.808098 17.051419,-10.622163 l 16.916209,-10.57103 0.05973,0.446513 c 0.07236,0.540986 0.155501,35.24595 0.08734,36.459164 -0.03002,0.53426 -0.108477,0.85255 -0.208553,0.84602 -0.08824,-0.006 -0.820706,-0.0749 -1.627706,-0.1536 z"
       id="path6580" />
  </g>
</svg>
